<mxfile host="app.diagrams.net" modified="2020-11-22T12:40:42.539Z" agent="5.0 (Windows NT 10.0; Win64; x64) AppleWebKit/537.36 (KHTML, like Gecko) Chrome/86.0.4240.198 Safari/537.36" etag="ELJgIExnklzYqr6gtNhk" version="13.10.0" type="github">
  <diagram id="AM1Ca5-FUO0PT2yyeDSW" name="Page-1">
    <mxGraphModel dx="1374" dy="852" grid="1" gridSize="10" guides="1" tooltips="1" connect="1" arrows="1" fold="1" page="1" pageScale="1" pageWidth="827" pageHeight="1169" math="0" shadow="0">
      <root>
        <mxCell id="0" />
        <mxCell id="1" parent="0" />
        <mxCell id="vamcHDvXJBKGt-1I8U4q-1" value="FrogData" style="swimlane;fontStyle=1;align=center;verticalAlign=top;childLayout=stackLayout;horizontal=1;startSize=26;horizontalStack=0;resizeParent=1;resizeParentMax=0;resizeLast=0;collapsible=1;marginBottom=0;" parent="1" vertex="1">
          <mxGeometry x="40" y="200" width="160" height="80" as="geometry" />
        </mxCell>
        <mxCell id="vamcHDvXJBKGt-1I8U4q-5" value="MovableEntityData" style="swimlane;fontStyle=1;align=center;verticalAlign=top;childLayout=stackLayout;horizontal=1;startSize=26;horizontalStack=0;resizeParent=1;resizeParentMax=0;resizeLast=0;collapsible=1;marginBottom=0;" parent="1" vertex="1">
          <mxGeometry x="40" y="40" width="160" height="80" as="geometry" />
        </mxCell>
        <mxCell id="vamcHDvXJBKGt-1I8U4q-12" value="FrogManager" style="swimlane;fontStyle=1;align=center;verticalAlign=top;childLayout=stackLayout;horizontal=1;startSize=26;horizontalStack=0;resizeParent=1;resizeParentMax=0;resizeLast=0;collapsible=1;marginBottom=0;" parent="1" vertex="1">
          <mxGeometry x="40" y="360" width="160" height="80" as="geometry" />
        </mxCell>
        <mxCell id="vamcHDvXJBKGt-1I8U4q-16" value="" style="endArrow=diamondThin;endFill=0;endSize=24;html=1;exitX=0.5;exitY=1;exitDx=0;exitDy=0;" parent="1" source="vamcHDvXJBKGt-1I8U4q-1" target="vamcHDvXJBKGt-1I8U4q-12" edge="1">
          <mxGeometry width="160" relative="1" as="geometry">
            <mxPoint x="80" y="340" as="sourcePoint" />
            <mxPoint x="60" y="360" as="targetPoint" />
          </mxGeometry>
        </mxCell>
        <mxCell id="vamcHDvXJBKGt-1I8U4q-17" value="Obstacle" style="swimlane;fontStyle=1;align=center;verticalAlign=top;childLayout=stackLayout;horizontal=1;startSize=26;horizontalStack=0;resizeParent=1;resizeParentMax=0;resizeLast=0;collapsible=1;marginBottom=0;" parent="1" vertex="1">
          <mxGeometry x="280" y="40" width="160" height="80" as="geometry" />
        </mxCell>
        <mxCell id="vamcHDvXJBKGt-1I8U4q-21" value="" style="endArrow=diamondThin;endFill=0;endSize=24;html=1;exitX=1;exitY=0.5;exitDx=0;exitDy=0;entryX=0;entryY=0.5;entryDx=0;entryDy=0;fillColor=#000000;strokeColor=#000000;" parent="1" source="vamcHDvXJBKGt-1I8U4q-5" target="vamcHDvXJBKGt-1I8U4q-17" edge="1">
          <mxGeometry width="160" relative="1" as="geometry">
            <mxPoint x="160" y="79" as="sourcePoint" />
            <mxPoint x="250" y="110" as="targetPoint" />
          </mxGeometry>
        </mxCell>
        <mxCell id="vamcHDvXJBKGt-1I8U4q-22" value="" style="endArrow=diamondThin;endFill=0;endSize=24;html=1;entryX=0.5;entryY=0;entryDx=0;entryDy=0;exitX=0.5;exitY=1;exitDx=0;exitDy=0;" parent="1" source="vamcHDvXJBKGt-1I8U4q-17" target="vamcHDvXJBKGt-1I8U4q-23" edge="1">
          <mxGeometry width="160" relative="1" as="geometry">
            <mxPoint x="360" y="127" as="sourcePoint" />
            <mxPoint x="340" y="200" as="targetPoint" />
          </mxGeometry>
        </mxCell>
        <mxCell id="vamcHDvXJBKGt-1I8U4q-23" value="RowData" style="swimlane;fontStyle=1;align=center;verticalAlign=top;childLayout=stackLayout;horizontal=1;startSize=26;horizontalStack=0;resizeParent=1;resizeParentMax=0;resizeLast=0;collapsible=1;marginBottom=0;" parent="1" vertex="1">
          <mxGeometry x="280" y="200" width="160" height="80" as="geometry" />
        </mxCell>
        <mxCell id="vamcHDvXJBKGt-1I8U4q-27" value="ObstacleManager" style="swimlane;fontStyle=1;align=center;verticalAlign=top;childLayout=stackLayout;horizontal=1;startSize=26;horizontalStack=0;resizeParent=1;resizeParentMax=0;resizeLast=0;collapsible=1;marginBottom=0;" parent="1" vertex="1">
          <mxGeometry x="280" y="360" width="160" height="80" as="geometry" />
        </mxCell>
        <mxCell id="vamcHDvXJBKGt-1I8U4q-31" value="" style="endArrow=diamondThin;endFill=0;endSize=24;html=1;exitX=0.5;exitY=1;exitDx=0;exitDy=0;entryX=0.5;entryY=0;entryDx=0;entryDy=0;" parent="1" source="vamcHDvXJBKGt-1I8U4q-23" target="vamcHDvXJBKGt-1I8U4q-27" edge="1">
          <mxGeometry width="160" relative="1" as="geometry">
            <mxPoint x="359" y="306" as="sourcePoint" />
            <mxPoint x="359" y="350" as="targetPoint" />
          </mxGeometry>
        </mxCell>
        <mxCell id="vamcHDvXJBKGt-1I8U4q-34" value="GameManager" style="swimlane;fontStyle=1;align=center;verticalAlign=top;childLayout=stackLayout;horizontal=1;startSize=26;horizontalStack=0;resizeParent=1;resizeParentMax=0;resizeLast=0;collapsible=1;marginBottom=0;" parent="1" vertex="1">
          <mxGeometry x="280" y="680" width="160" height="80" as="geometry" />
        </mxCell>
        <mxCell id="vamcHDvXJBKGt-1I8U4q-38" value="Turtle" style="swimlane;fontStyle=1;align=center;verticalAlign=top;childLayout=stackLayout;horizontal=1;startSize=26;horizontalStack=0;resizeParent=1;resizeParentMax=0;resizeLast=0;collapsible=1;marginBottom=0;" parent="1" vertex="1">
          <mxGeometry x="520" y="40" width="160" height="80" as="geometry" />
        </mxCell>
        <mxCell id="vamcHDvXJBKGt-1I8U4q-46" value="GameState" style="swimlane;fontStyle=1;align=center;verticalAlign=top;childLayout=stackLayout;horizontal=1;startSize=26;horizontalStack=0;resizeParent=1;resizeParentMax=0;resizeLast=0;collapsible=1;marginBottom=0;shadow=0;" parent="1" vertex="1">
          <mxGeometry x="280" y="520" width="160" height="80" as="geometry" />
        </mxCell>
        <mxCell id="vamcHDvXJBKGt-1I8U4q-50" value="" style="endArrow=diamondThin;endFill=0;endSize=24;html=1;exitX=0.5;exitY=1;exitDx=0;exitDy=0;entryX=0;entryY=0.5;entryDx=0;entryDy=0;" parent="1" source="vamcHDvXJBKGt-1I8U4q-12" target="vamcHDvXJBKGt-1I8U4q-46" edge="1">
          <mxGeometry width="160" relative="1" as="geometry">
            <mxPoint x="90.32000000000016" y="322.2080000000001" as="sourcePoint" />
            <mxPoint x="280" y="623" as="targetPoint" />
            <Array as="points">
              <mxPoint x="120" y="560" />
            </Array>
          </mxGeometry>
        </mxCell>
        <mxCell id="vamcHDvXJBKGt-1I8U4q-52" value="" style="endArrow=diamondThin;endFill=0;endSize=24;html=1;exitX=0.5;exitY=1;exitDx=0;exitDy=0;entryX=0.5;entryY=0;entryDx=0;entryDy=0;" parent="1" source="vamcHDvXJBKGt-1I8U4q-46" target="vamcHDvXJBKGt-1I8U4q-34" edge="1">
          <mxGeometry width="160" relative="1" as="geometry">
            <mxPoint x="220" y="655" as="sourcePoint" />
            <mxPoint x="360" y="740" as="targetPoint" />
          </mxGeometry>
        </mxCell>
        <mxCell id="vamcHDvXJBKGt-1I8U4q-54" value="PlayerInput" style="swimlane;fontStyle=1;align=center;verticalAlign=top;childLayout=stackLayout;horizontal=1;startSize=26;horizontalStack=0;resizeParent=1;resizeParentMax=0;resizeLast=0;collapsible=1;marginBottom=0;" parent="1" vertex="1">
          <mxGeometry x="520" y="840" width="160" height="80" as="geometry" />
        </mxCell>
        <mxCell id="vamcHDvXJBKGt-1I8U4q-58" value="" style="endArrow=diamondThin;endFill=0;endSize=24;html=1;exitX=0.5;exitY=0;exitDx=0;exitDy=0;entryX=1;entryY=1;entryDx=0;entryDy=0;" parent="1" source="vamcHDvXJBKGt-1I8U4q-54" target="vamcHDvXJBKGt-1I8U4q-34" edge="1">
          <mxGeometry width="160" relative="1" as="geometry">
            <mxPoint x="220" y="770" as="sourcePoint" />
            <mxPoint x="360" y="829" as="targetPoint" />
          </mxGeometry>
        </mxCell>
        <mxCell id="vamcHDvXJBKGt-1I8U4q-59" value="UIManager" style="swimlane;fontStyle=1;align=center;verticalAlign=top;childLayout=stackLayout;horizontal=1;startSize=26;horizontalStack=0;resizeParent=1;resizeParentMax=0;resizeLast=0;collapsible=1;marginBottom=0;" parent="1" vertex="1">
          <mxGeometry x="40" y="840" width="160" height="80" as="geometry" />
        </mxCell>
        <mxCell id="vamcHDvXJBKGt-1I8U4q-66" value="" style="endArrow=diamondThin;endFill=0;endSize=24;html=1;exitX=0.5;exitY=0;exitDx=0;exitDy=0;entryX=0;entryY=1;entryDx=0;entryDy=0;" parent="1" source="vamcHDvXJBKGt-1I8U4q-59" target="vamcHDvXJBKGt-1I8U4q-34" edge="1">
          <mxGeometry width="160" relative="1" as="geometry">
            <mxPoint x="170" y="870.9999999999998" as="sourcePoint" />
            <mxPoint x="170" y="800" as="targetPoint" />
          </mxGeometry>
        </mxCell>
        <mxCell id="vamcHDvXJBKGt-1I8U4q-69" value="" style="endArrow=diamondThin;endFill=0;endSize=24;html=1;exitX=0;exitY=0.5;exitDx=0;exitDy=0;entryX=1;entryY=0.5;entryDx=0;entryDy=0;" parent="1" source="vamcHDvXJBKGt-1I8U4q-71" target="vamcHDvXJBKGt-1I8U4q-34" edge="1">
          <mxGeometry width="160" relative="1" as="geometry">
            <mxPoint x="599.9999999999998" y="900" as="sourcePoint" />
            <mxPoint x="480" y="794.9999999999998" as="targetPoint" />
          </mxGeometry>
        </mxCell>
        <mxCell id="vamcHDvXJBKGt-1I8U4q-70" value="" style="endArrow=diamondThin;endFill=0;endSize=24;html=1;exitX=0.5;exitY=1;exitDx=0;exitDy=0;" parent="1" source="vamcHDvXJBKGt-1I8U4q-27" edge="1">
          <mxGeometry width="160" relative="1" as="geometry">
            <mxPoint x="359.29" y="460" as="sourcePoint" />
            <mxPoint x="359" y="520" as="targetPoint" />
          </mxGeometry>
        </mxCell>
        <mxCell id="vamcHDvXJBKGt-1I8U4q-71" value="ObjectPooler" style="swimlane;fontStyle=1;align=center;verticalAlign=top;childLayout=stackLayout;horizontal=1;startSize=26;horizontalStack=0;resizeParent=1;resizeParentMax=0;resizeLast=0;collapsible=1;marginBottom=0;shadow=0;" parent="1" vertex="1">
          <mxGeometry x="520" y="680" width="160" height="80" as="geometry" />
        </mxCell>
        <mxCell id="vamcHDvXJBKGt-1I8U4q-76" value="Extends" style="endArrow=block;endSize=16;endFill=0;html=1;strokeColor=#000000;fillColor=#000000;exitX=0.5;exitY=0;exitDx=0;exitDy=0;entryX=0.5;entryY=1;entryDx=0;entryDy=0;" parent="1" source="vamcHDvXJBKGt-1I8U4q-1" target="vamcHDvXJBKGt-1I8U4q-5" edge="1">
          <mxGeometry width="160" relative="1" as="geometry">
            <mxPoint x="380" y="430" as="sourcePoint" />
            <mxPoint x="540" y="430" as="targetPoint" />
          </mxGeometry>
        </mxCell>
        <mxCell id="vamcHDvXJBKGt-1I8U4q-77" value="Extends" style="endArrow=block;endSize=16;endFill=0;html=1;strokeColor=#000000;fillColor=#000000;exitX=0;exitY=0.5;exitDx=0;exitDy=0;entryX=1;entryY=0.5;entryDx=0;entryDy=0;" parent="1" source="vamcHDvXJBKGt-1I8U4q-38" target="vamcHDvXJBKGt-1I8U4q-17" edge="1">
          <mxGeometry width="160" relative="1" as="geometry">
            <mxPoint x="380" y="430" as="sourcePoint" />
            <mxPoint x="540" y="430" as="targetPoint" />
          </mxGeometry>
        </mxCell>
        <mxCell id="34vDQEOvOO5dRPOwZs55-1" value="GameConfig" style="swimlane;fontStyle=1;align=center;verticalAlign=top;childLayout=stackLayout;horizontal=1;startSize=26;horizontalStack=0;resizeParent=1;resizeParentMax=0;resizeLast=0;collapsible=1;marginBottom=0;" vertex="1" parent="1">
          <mxGeometry x="40" y="680" width="160" height="80" as="geometry" />
        </mxCell>
        <mxCell id="34vDQEOvOO5dRPOwZs55-2" value="" style="endArrow=diamondThin;endFill=0;endSize=24;html=1;entryX=0;entryY=0.5;entryDx=0;entryDy=0;exitX=1;exitY=0.5;exitDx=0;exitDy=0;" edge="1" parent="1" source="34vDQEOvOO5dRPOwZs55-1" target="vamcHDvXJBKGt-1I8U4q-34">
          <mxGeometry width="160" relative="1" as="geometry">
            <mxPoint x="200" y="730" as="sourcePoint" />
            <mxPoint x="220" y="640" as="targetPoint" />
          </mxGeometry>
        </mxCell>
        <mxCell id="34vDQEOvOO5dRPOwZs55-7" value="FinishSpot" style="swimlane;fontStyle=1;align=center;verticalAlign=top;childLayout=stackLayout;horizontal=1;startSize=26;horizontalStack=0;resizeParent=1;resizeParentMax=0;resizeLast=0;collapsible=1;marginBottom=0;" vertex="1" parent="1">
          <mxGeometry x="520" y="520" width="160" height="80" as="geometry" />
        </mxCell>
        <mxCell id="34vDQEOvOO5dRPOwZs55-8" value="" style="endArrow=diamondThin;endFill=0;endSize=24;html=1;entryX=1;entryY=0.5;entryDx=0;entryDy=0;exitX=0;exitY=0.5;exitDx=0;exitDy=0;" edge="1" parent="1" source="34vDQEOvOO5dRPOwZs55-7" target="vamcHDvXJBKGt-1I8U4q-46">
          <mxGeometry width="160" relative="1" as="geometry">
            <mxPoint x="330" y="510" as="sourcePoint" />
            <mxPoint x="490" y="510" as="targetPoint" />
          </mxGeometry>
        </mxCell>
      </root>
    </mxGraphModel>
  </diagram>
</mxfile>
